<svg width="204" height="20" viewBox="0 0 204 20" fill="none" xmlns="http://www.w3.org/2000/svg">
<path d="M7.63056 19.5C2.87202 19.5 0.253413 17.6559 0.253413 14.4147V14.3309H4.47697V14.5824C4.47697 15.8397 5.26537 16.175 7.65872 16.175C9.91128 16.175 10.4463 15.8118 10.4463 14.9735C10.4463 14.1912 10.0239 13.9676 8.36264 13.7441L4.3925 13.2691C1.57679 12.9618 0 11.7044 0 9.35735C0 6.89853 2.11178 4.94265 6.95479 4.94265C11.5725 4.94265 14.1912 6.675 14.1912 10.0838V10.1676H9.9676V10C9.9676 8.85441 9.40445 8.26765 6.814 8.26765C4.70223 8.26765 4.16724 8.63088 4.16724 9.525C4.16724 10.2515 4.56144 10.5588 6.41981 10.7824L9.43261 11.1456C13.2057 11.5647 14.6135 12.8221 14.6135 15.1412C14.6135 17.7676 11.9949 19.5 7.63056 19.5Z" fill="white"/>
<path d="M26.2571 19.2206H22.7656C19.4713 19.2206 17.4721 17.6838 17.4721 14.1632V8.68676H15.2477V5.22206H17.4721V2.51176H21.6957V5.22206H26.2571V8.68676H21.6957V13.6882C21.6957 15.0853 22.2306 15.4485 23.723 15.4485H26.2571V19.2206Z" fill="white"/>
<path d="M32.0625 19.2206H27.839V5.22206H31.7528V8.93824H32.0062C32.4004 6.675 33.8927 4.94265 36.7366 4.94265C39.8902 4.94265 41.1854 7.09412 41.1854 9.83235V12.1515H36.9618V10.6985C36.9618 9.16176 36.3424 8.49118 34.6248 8.49118C32.7383 8.49118 32.0625 9.35735 32.0625 11.1176V19.2206Z" fill="white"/>
<path d="M50.2047 19.5C45.5024 19.5 42.2925 17.2088 42.2925 12.2353C42.2925 7.76471 45.4743 4.94265 50.1202 4.94265C54.738 4.94265 57.8071 7.34559 57.8071 11.7324C57.8071 12.2353 57.7508 12.5985 57.6944 13.0735H46.2064C46.319 15.225 47.3327 16.1471 50.0639 16.1471C52.5699 16.1471 53.4427 15.5044 53.4427 14.3029V14.0235H57.6663V14.3309C57.6663 17.3765 54.6816 19.5 50.2047 19.5ZM50.0357 8.21176C47.5298 8.21176 46.4598 9.05 46.2627 10.8662H53.7525C53.6398 9.02206 52.5136 8.21176 50.0357 8.21176Z" fill="white"/>
<path d="M63.9343 19.5C60.8934 19.5 59.0631 18.1029 59.0631 15.7559C59.0631 13.6882 60.6118 12.4029 63.6246 12.0956L69.6784 11.4809V10.95C69.6784 9.13382 68.8618 8.63088 66.6092 8.63088C64.4693 8.63088 63.5964 9.1897 63.5964 10.7824V10.8941H59.3447V10.8103C59.3447 7.34559 62.273 4.94265 66.919 4.94265C71.6212 4.94265 73.8456 7.34559 73.8456 11.0059V19.2206H69.9036V16.0074H69.6784C69.0307 18.1868 67.0597 19.5 63.9343 19.5ZM63.3149 15.4765C63.3149 16.2309 63.9062 16.5382 65.1451 16.5382C68.0171 16.5382 69.5657 15.8676 69.6784 13.8838L64.779 14.4426C63.7654 14.5265 63.3149 14.8059 63.3149 15.4765Z" fill="white"/>
<path d="M80.21 19.2206H75.9864V5.22206H79.9002V9.46912H80.1255C80.4634 7.12206 81.8712 4.94265 85.419 4.94265C88.6852 4.94265 90.3465 6.92647 90.6562 9.525H90.9097C91.2475 7.15 92.6835 4.94265 96.3158 4.94265C99.9481 4.94265 101.722 7.31765 101.722 10.5029V19.2206H97.4984V11.9C97.4984 9.58088 96.6818 8.71471 94.2603 8.71471C91.698 8.71471 90.966 9.72059 90.966 12.1515V19.2206H86.7424V11.9C86.7424 9.58088 85.9258 8.71471 83.5043 8.71471C80.942 8.71471 80.21 9.72059 80.21 12.1515V19.2206Z" fill="white"/>
<path d="M111.358 19.5C106.656 19.5 103.446 17.2088 103.446 12.2353C103.446 7.76471 106.628 4.94265 111.274 4.94265C115.892 4.94265 118.961 7.34559 118.961 11.7324C118.961 12.2353 118.904 12.5985 118.848 13.0735H107.36C107.473 15.225 108.486 16.1471 111.217 16.1471C113.723 16.1471 114.596 15.5044 114.596 14.3029V14.0235H118.82V14.3309C118.82 17.3765 115.835 19.5 111.358 19.5ZM111.189 8.21176C108.683 8.21176 107.613 9.05 107.416 10.8662H114.906C114.793 9.02206 113.667 8.21176 111.189 8.21176Z" fill="white"/>
<path d="M124.975 19.2206H120.752V5.22206H124.666V8.93824H124.919C125.313 6.675 126.805 4.94265 129.649 4.94265C132.803 4.94265 134.098 7.09412 134.098 9.83235V12.1515H129.875V10.6985C129.875 9.16176 129.255 8.49118 127.538 8.49118C125.651 8.49118 124.975 9.35735 124.975 11.1176V19.2206Z" fill="white"/>
<path d="M145.961 19.2206H142.245C138.697 19.2206 136.585 17.5162 136.585 13.8559V9.44118H134.501V5.13824H136.585V2.70735H141.879V5.13824H145.961V9.44118H141.879V13.1015C141.879 14.2191 142.216 14.4985 143.427 14.4985H145.961V19.2206Z" fill="white"/>
<path d="M155.081 19.5C150.153 19.5 146.802 16.7338 146.802 12.1794C146.802 7.59706 150.153 4.85882 155.081 4.85882C160.008 4.85882 163.359 7.59706 163.359 12.1794C163.359 16.7338 160.008 19.5 155.081 19.5ZM155.081 14.8618C157.474 14.8618 158.122 14.2191 158.122 12.1794C158.122 10.1397 157.474 9.46912 155.081 9.46912C152.687 9.46912 152.04 10.1397 152.04 12.1794C152.04 14.2191 152.687 14.8618 155.081 14.8618Z" fill="white"/>
<path d="M172.486 19.5C167.559 19.5 164.208 16.7338 164.208 12.1794C164.208 7.59706 167.559 4.85882 172.486 4.85882C177.414 4.85882 180.764 7.59706 180.764 12.1794C180.764 16.7338 177.414 19.5 172.486 19.5ZM172.486 14.8618C174.88 14.8618 175.527 14.2191 175.527 12.1794C175.527 10.1397 174.88 9.46912 172.486 9.46912C170.093 9.46912 169.445 10.1397 169.445 12.1794C169.445 14.2191 170.093 14.8618 172.486 14.8618Z" fill="white"/>
<path d="M187.33 19.2206H182.036V0.5H187.33V19.2206Z" fill="white"/>
<path d="M196.651 19.5C191.639 19.5 188.964 17.5721 188.964 14.3309V14.2191H194.258V14.4985C194.258 15.2809 194.764 15.3647 196.679 15.3647C198.509 15.3647 198.791 15.1691 198.791 14.6941C198.791 14.2471 198.566 14.1353 197.242 13.9956L193.131 13.5485C190.203 13.2412 188.626 11.8721 188.626 9.49706C188.626 7.01029 190.625 4.85882 195.947 4.85882C200.875 4.85882 203.493 6.61912 203.493 10.0838V10.1956H198.2V10.0279C198.2 9.30147 197.918 8.96618 195.778 8.96618C194.061 8.96618 193.835 9.1897 193.835 9.72059C193.835 10.1118 194.061 10.3074 195.722 10.475L198.538 10.7824C202.677 11.2294 204 12.5985 204 14.9735C204 17.6 201.353 19.5 196.651 19.5Z" fill="white"/>
</svg>
