<svg width="64" height="64" viewBox="0 0 64 64" fill="none" xmlns="http://www.w3.org/2000/svg">
<path d="M19.6626 51C8.63121 51 2.74369 46.6373 2.74369 39.3028V39.0499H14.3948V39.6822C14.3948 41.4526 15.5103 41.6423 19.7246 41.6423C23.7529 41.6423 24.3726 41.1997 24.3726 40.1248C24.3726 39.1131 23.8768 38.8602 20.964 38.5441L11.9158 37.5324C5.47054 36.8369 2 33.7388 2 28.3644C2 22.7371 6.40015 17.8686 18.1132 17.8686C28.9587 17.8686 34.7223 21.8519 34.7223 29.6922V29.9451H23.0712V29.5657C23.0712 27.9218 22.4514 27.1631 17.7414 27.1631C13.961 27.1631 13.4652 27.6689 13.4652 28.8702C13.4652 29.7554 13.961 30.198 17.6174 30.5774L23.8148 31.2729C32.925 32.2845 35.8378 35.3827 35.8378 40.7571C35.8378 46.7005 30.0122 51 19.6626 51Z" fill="white"/>
<path d="M62 50.3677H53.8194C46.0107 50.3677 41.3627 46.5108 41.3627 38.228V28.2379H36.7766V18.5008H41.3627V13H53.0138V18.5008H62V28.2379H53.0138V36.5208C53.0138 39.0499 53.7575 39.6822 56.4223 39.6822H62V50.3677Z" fill="white"/>
</svg>
