<svg width="725" height="68" viewBox="0 0 725 68" fill="none" xmlns="http://www.w3.org/2000/svg">
<path d="M27.3 68C10.4 68 1.1 61.4 1.1 49.8V49.5H16.1V50.4C16.1 54.9 18.9 56.1 27.4 56.1C35.4 56.1 37.3 54.8 37.3 51.8C37.3 49 35.8 48.2 29.9 47.4L15.8 45.7C5.8 44.6 0.199997 40.1 0.199997 31.7C0.199997 22.9 7.7 15.9 24.9 15.9C41.3 15.9 50.6 22.1 50.6 34.3V34.6H35.6V34C35.6 29.9 33.6 27.8 24.4 27.8C16.9 27.8 15 29.1 15 32.3C15 34.9 16.4 36 23 36.8L33.7 38.1C47.1 39.6 52.1 44.1 52.1 52.4C52.1 61.8 42.8 68 27.3 68Z" fill="white"/>
<path d="M93.4523 67H81.0523C69.3523 67 62.2523 61.5 62.2523 48.9V29.3H54.3523V16.9H62.2523V7.2H77.2523V16.9H93.4523V29.3H77.2523V47.2C77.2523 52.2 79.1523 53.5 84.4523 53.5H93.4523V67Z" fill="white"/>
<path d="M114.07 67H99.0703V16.9H112.97V30.2H113.87C115.27 22.1 120.57 15.9 130.67 15.9C141.87 15.9 146.47 23.6 146.47 33.4V41.7H131.47V36.5C131.47 31 129.27 28.6 123.17 28.6C116.47 28.6 114.07 31.7 114.07 38V67Z" fill="white"/>
<path d="M178.502 68C161.802 68 150.402 59.8 150.402 42C150.402 26 161.702 15.9 178.202 15.9C194.602 15.9 205.502 24.5 205.502 40.2C205.502 42 205.302 43.3 205.102 45H164.302C164.702 52.7 168.302 56 178.002 56C186.902 56 190.002 53.7 190.002 49.4V48.4H205.002V49.5C205.002 60.4 194.402 68 178.502 68ZM177.902 27.6C169.002 27.6 165.202 30.6 164.502 37.1H191.102C190.702 30.5 186.702 27.6 177.902 27.6Z" fill="white"/>
<path d="M227.263 68C216.463 68 209.963 63 209.963 54.6C209.963 47.2 215.463 42.6 226.163 41.5L247.663 39.3V37.4C247.663 30.9 244.763 29.1 236.763 29.1C229.163 29.1 226.063 31.1 226.063 36.8V37.2H210.963V36.9C210.963 24.5 221.363 15.9 237.863 15.9C254.563 15.9 262.463 24.5 262.463 37.6V67H248.463V55.5H247.663C245.363 63.3 238.363 68 227.263 68ZM225.063 53.6C225.063 56.3 227.163 57.4 231.563 57.4C241.763 57.4 247.263 55 247.663 47.9L230.263 49.9C226.663 50.2 225.063 51.2 225.063 53.6Z" fill="white"/>
<path d="M285.066 67H270.066V16.9H283.966V32.1H284.766C285.966 23.7 290.966 15.9 303.566 15.9C315.166 15.9 321.066 23 322.166 32.3H323.066C324.266 23.8 329.366 15.9 342.266 15.9C355.166 15.9 361.466 24.4 361.466 35.8V67H346.466V40.8C346.466 32.5 343.566 29.4 334.966 29.4C325.866 29.4 323.266 33 323.266 41.7V67H308.266V40.8C308.266 32.5 305.366 29.4 296.766 29.4C287.666 29.4 285.066 33 285.066 41.7V67Z" fill="white"/>
<path d="M395.69 68C378.99 68 367.59 59.8 367.59 42C367.59 26 378.89 15.9 395.39 15.9C411.79 15.9 422.69 24.5 422.69 40.2C422.69 42 422.49 43.3 422.29 45H381.49C381.89 52.7 385.49 56 395.19 56C404.09 56 407.19 53.7 407.19 49.4V48.4H422.19V49.5C422.19 60.4 411.59 68 395.69 68ZM395.09 27.6C386.19 27.6 382.39 30.6 381.69 37.1H408.29C407.89 30.5 403.89 27.6 395.09 27.6Z" fill="white"/>
<path d="M444.051 67H429.051V16.9H442.951V30.2H443.851C445.251 22.1 450.551 15.9 460.651 15.9C471.851 15.9 476.451 23.6 476.451 33.4V41.7H461.451V36.5C461.451 31 459.251 28.6 453.151 28.6C446.451 28.6 444.051 31.7 444.051 38V67Z" fill="white"/>
<path d="M518.583 67H505.383C492.783 67 485.283 60.9 485.283 47.8V32H477.883V16.6H485.283V7.9H504.083V16.6H518.583V32H504.083V45.1C504.083 49.1 505.283 50.1 509.583 50.1H518.583V67Z" fill="white"/>
<path d="M550.97 68C533.47 68 521.57 58.1 521.57 41.8C521.57 25.4 533.47 15.6 550.97 15.6C568.47 15.6 580.37 25.4 580.37 41.8C580.37 58.1 568.47 68 550.97 68ZM550.97 51.4C559.47 51.4 561.77 49.1 561.77 41.8C561.77 34.5 559.47 32.1 550.97 32.1C542.47 32.1 540.17 34.5 540.17 41.8C540.17 49.1 542.47 51.4 550.97 51.4Z" fill="white"/>
<path d="M612.787 68C595.287 68 583.387 58.1 583.387 41.8C583.387 25.4 595.287 15.6 612.787 15.6C630.287 15.6 642.187 25.4 642.187 41.8C642.187 58.1 630.287 68 612.787 68ZM612.787 51.4C621.287 51.4 623.587 49.1 623.587 41.8C623.587 34.5 621.287 32.1 612.787 32.1C604.287 32.1 601.987 34.5 601.987 41.8C601.987 49.1 604.287 51.4 612.787 51.4Z" fill="white"/>
<path d="M665.503 67H646.703V0H665.503V67Z" fill="white"/>
<path d="M698.608 68C680.808 68 671.308 61.1 671.308 49.5V49.1H690.108V50.1C690.108 52.9 691.908 53.2 698.708 53.2C705.208 53.2 706.208 52.5 706.208 50.8C706.208 49.2 705.408 48.8 700.708 48.3L686.108 46.7C675.708 45.6 670.108 40.7 670.108 32.2C670.108 23.3 677.208 15.6 696.108 15.6C713.608 15.6 722.908 21.9 722.908 34.3V34.7H704.108V34.1C704.108 31.5 703.108 30.3 695.508 30.3C689.408 30.3 688.608 31.1 688.608 33C688.608 34.4 689.408 35.1 695.308 35.7L705.308 36.8C720.008 38.4 724.708 43.3 724.708 51.8C724.708 61.2 715.308 68 698.608 68Z" fill="white"/>
</svg>
